<svg width="118" height="25" viewBox="0 0 118 25" fill="none" xmlns="http://www.w3.org/2000/svg">
<g clip-path="url(#clip0_25714_185)">
<path d="M0.458569 0.589012V5.82097H8.76653C7.67523 6.33094 5.0778 6.75814 2.8267 8.21099C0.80965 9.51255 -0.320659 11.4954 0.0798967 14.1546C0.704992 18.3077 5.11491 19.4627 8.73989 18.0013C10.7503 17.1907 12.0604 15.2526 12.2117 13.9577V18.1973H18.9117V0.589012H0.458569ZM12.2117 8.55446C12.2117 10.4878 11.7883 12.5467 9.64566 13.3507C7.77989 14.0509 6.10536 12.7075 6.31372 11.0796C6.465 9.89598 7.61434 9.18716 8.70278 8.72762C10.4829 7.97598 11.6066 7.3899 12.2107 6.64777V8.55446H12.2117Z" fill="white"/>
<path d="M41.0422 0.589012H47.7422V4.77629C47.9905 2.2017 50.5956 0.0923615 53.977 0.0923615C58.2575 0.0923615 61.1109 3.78299 61.1109 9.30419C61.1109 14.8254 58.2575 18.6407 53.9456 18.6407C50.5651 18.6407 47.9905 16.5313 47.7422 13.9567V24.9991H41.0422V0.589012ZM54.4108 9.36698C54.4108 6.79239 53.1388 5.2111 51.0922 5.2111C49.0457 5.2111 47.7422 6.79334 47.7422 9.36698C47.7422 11.9406 49.0143 13.5238 51.0922 13.5238C53.1702 13.5238 54.4108 11.9416 54.4108 9.36698Z" fill="white"/>
<path d="M84.0196 0.589012H90.7197V6.73055C90.751 2.17125 94.2866 0.589012 97.4197 0.589012H98.4843V5.82097H97.0781C92.5807 5.82097 90.7197 8.40603 90.7197 12.4068V18.1973H84.0196V0.589012Z" fill="white"/>
<path d="M30.2709 6.57547C27.6659 6.57547 26.6421 6.54407 26.6421 5.7382C26.6421 5.05602 27.5412 4.46423 29.6201 4.46423C31.1529 4.46423 32.6438 4.93329 33.4849 5.80385L38.9195 3.10177C37.2269 1.31592 33.9359 7.62939e-05 29.7743 7.62939e-05C25.215 7.62939e-05 20.6547 1.98478 20.6547 6.2967C20.6547 11.3526 26.2996 11.4763 29.4945 11.4763C32.1928 11.4763 33.62 11.5696 33.62 12.6856C33.62 13.461 32.4107 14.2079 30.1463 14.2079C28.31 14.2079 26.1912 13.6646 25.2645 12.07L20.3027 15.3278L20.2818 15.3106C22.1038 17.42 25.2978 18.7339 29.9598 18.7339C35.2327 18.7339 39.8234 16.3458 39.8234 12.1271C39.8234 6.69916 33.4031 6.57547 30.27 6.57547H30.2709Z" fill="white"/>
<path d="M24.8992 11.3146L24.9486 11.3308C24.9448 11.3175 24.9401 11.3042 24.9363 11.2909L24.8992 11.3146Z" fill="white"/>
<path d="M99.7982 0.589012V5.82097H107.44C106.349 6.33094 103.751 6.75814 101.5 8.21099C99.4833 9.51255 98.353 11.4954 98.7535 14.1546C99.3786 18.3077 103.789 19.4627 107.414 18.0013C109.424 17.1907 110.401 15.4771 110.885 14.1537V18.1973H117.585V0.589012H99.7982ZM110.885 8.55446C110.885 10.4878 110.462 12.5467 108.319 13.3507C106.454 14.0509 104.779 12.7075 104.987 11.0796C105.139 9.89598 106.288 9.18716 107.376 8.72762C109.157 7.97598 110.28 7.3899 110.884 6.64777V8.55446H110.885Z" fill="white"/>
<path d="M72.4853 0.00674438C66.4056 0.00674438 62.343 3.76017 62.343 9.37366C62.343 14.9871 66.4066 18.772 72.4853 18.772C78.5641 18.772 82.5972 15.0185 82.5972 9.37366C82.5972 3.72877 78.5641 0.00674438 72.4853 0.00674438ZM75.567 10.8769C74.8696 11.2252 74.3045 11.7903 73.9562 12.4877L72.4691 15.4657L70.982 12.4877C70.6338 11.7903 70.0687 11.2252 69.3713 10.8769L66.3933 9.38983L69.3713 7.90273C70.0687 7.55451 70.6338 6.98935 70.982 6.29195L72.4691 3.31394L73.9562 6.29195C74.3045 6.98935 74.8696 7.55451 75.567 7.90273L78.545 9.38983L75.567 10.8769Z" fill="white"/>
</g>
<defs>
<clipPath id="clip0_25714_185">
<rect width="117.585" height="25" fill="white"/>
</clipPath>
</defs>
</svg>
